<svg width="434" height="378" viewBox="0 0 434 378" fill="none" xmlns="http://www.w3.org/2000/svg">
<g filter="url(#filter0_d_15_7)">
<path d="M227.886 360C223.267 368 211.72 368 207.101 360L15.5641 28.2477C10.2058 18.9669 18.7905 7.78682 29.1556 10.5091C80.569 24.0121 187.125 51 217.494 51C247.862 51 354.418 24.0121 405.832 10.5091C416.197 7.78682 424.781 18.9669 419.423 28.2478L227.886 360Z" fill="url(#paint0_radial_15_7)"/>
<path d="M13.399 29.4977L204.936 361.25C210.517 370.917 224.47 370.917 230.051 361.25L421.588 29.4977C428.067 18.2769 417.692 4.80936 405.197 8.09106C379.5 14.84 340.037 24.955 303.213 33.3811C284.8 37.5945 267.067 41.3809 252.055 44.1125C236.986 46.8547 224.834 48.5 217.494 48.5C210.153 48.5 198.001 46.8547 182.932 44.1125C167.92 41.3809 150.188 37.5945 131.774 33.3811C94.9506 24.955 55.4877 14.84 29.7906 8.09106C17.2954 4.80936 6.92068 18.2769 13.399 29.4977Z" stroke="white" stroke-width="5"/>
</g>
<g filter="url(#filter1_d_15_7)">
<path d="M228.392 332C223.774 340 212.226 340 207.608 332L47.5768 54.8184C42.2185 45.5375 50.76 34.3398 61.1281 37.0505C106.381 48.8817 192.826 70.5856 218 70.5856C243.174 70.5856 329.619 48.8818 374.872 37.0505C385.24 34.3398 393.781 45.5375 388.423 54.8184L228.392 332Z" fill="url(#paint1_radial_15_7)" shape-rendering="crispEdges"/>
</g>
<path d="M131 176V154.76H132.08V176H131ZM135.32 176V154.76H136.4V176H135.32ZM137.48 176V154.76H138.56V176H137.48ZM141.8 176V154.76H142.88V176H141.8ZM146.12 176V154.76H147.2V176H146.12ZM148.28 176V154.76H149.36V176H148.28ZM152.6 176V154.76H155.84V176H152.6ZM156.92 176V154.76H158V176H156.92ZM159.08 176V154.76H160.16V176H159.08ZM161.24 176V154.76H164.48V176H161.24ZM151.016 181.364C150.872 182.084 150.572 182.972 150.116 184.028L148.64 187.484H147.884L145.472 181.364H146.444L148.316 186.152L149.324 183.884C149.732 182.972 149.996 182.132 150.116 181.364H151.016ZM165.559 176V154.76H166.639V176H165.559ZM169.879 176V154.76H170.959V176H169.879ZM172.039 176V154.76H173.119V176H172.039ZM176.359 176V154.76H177.439V176H176.359ZM180.679 176V154.76H181.759V176H180.679ZM182.839 176V154.76H186.079V176H182.839ZM187.159 176V154.76H188.239V176H187.159ZM189.319 176V154.76H190.399V176H189.319ZM193.639 176V154.76H194.719V176H193.639ZM195.799 176V154.76H199.039V176H195.799ZM182.767 181.22C183.631 181.22 184.291 181.448 184.747 181.904C185.203 182.36 185.431 183.14 185.431 184.244V187.484H184.387V186.548C184.027 187.268 183.331 187.628 182.299 187.628C181.627 187.628 181.099 187.472 180.715 187.16C180.331 186.848 180.139 186.44 180.139 185.936C180.139 185.504 180.283 185.132 180.571 184.82C180.835 184.508 181.207 184.256 181.687 184.064C182.143 183.896 182.659 183.812 183.235 183.812C183.739 183.812 184.195 183.836 184.603 183.884C184.555 183.212 184.375 182.732 184.063 182.444C183.751 182.156 183.295 182.012 182.695 182.012C182.383 182.012 182.095 182.072 181.831 182.192C181.543 182.312 181.279 182.48 181.039 182.696L180.571 182.084C181.147 181.508 181.879 181.22 182.767 181.22ZM182.407 186.908C183.079 186.908 183.607 186.704 183.991 186.296C184.375 185.912 184.579 185.36 184.603 184.64C184.195 184.568 183.763 184.532 183.307 184.532C182.635 184.532 182.095 184.652 181.687 184.892C181.303 185.108 181.111 185.444 181.111 185.9C181.111 186.572 181.543 186.908 182.407 186.908ZM200.117 176V154.76H201.197V176H200.117ZM204.437 176V154.76H205.517V176H204.437ZM206.597 176V154.76H207.677V176H206.597ZM210.917 176V154.76H211.997V176H210.917ZM215.237 176V154.76H216.317V176H215.237ZM217.397 176V154.76H220.637V176H217.397ZM221.717 176V154.76H222.797V176H221.717ZM223.877 176V154.76H224.957V176H223.877ZM226.037 176V154.76H229.277V176H226.037ZM232.517 176V154.76H233.597V176H232.517ZM218.549 181.22C219.197 181.22 219.737 181.448 220.169 181.904L219.737 182.624L219.701 182.768L219.593 182.696C219.569 182.6 219.545 182.528 219.521 182.48C219.473 182.408 219.389 182.336 219.269 182.264C219.053 182.12 218.789 182.048 218.477 182.048C218.165 182.048 217.865 182.132 217.577 182.3C217.289 182.444 217.061 182.684 216.893 183.02C216.701 183.356 216.605 183.764 216.605 184.244V187.484H215.633V181.364H216.641L216.605 182.48C216.773 182.096 217.037 181.784 217.397 181.544C217.757 181.328 218.141 181.22 218.549 181.22ZM234.676 176V154.76H235.756V176H234.676ZM238.996 176V154.76H240.076V176H238.996ZM241.156 176V154.76H242.236V176H241.156ZM245.476 176V154.76H246.556V176H245.476ZM249.796 176V154.76H250.876V176H249.796ZM251.956 176V154.76H253.036V176H251.956ZM254.116 176V154.76H255.196V176H254.116ZM256.276 176V154.76H259.516V176H256.276ZM260.596 176V154.76H263.836V176H260.596ZM267.076 176V154.76H268.156V176H267.076ZM254.548 186.908C253.972 187.364 253.324 187.592 252.604 187.592C251.932 187.592 251.452 187.388 251.164 186.98C250.876 186.548 250.732 185.876 250.732 184.964C250.732 184.796 250.744 184.532 250.768 184.172L250.912 182.156H249.544V181.364H250.948L251.056 179.744L252.1 179.564H252.244V179.636C252.196 179.708 252.16 179.78 252.136 179.852C252.088 179.924 252.064 180.02 252.064 180.14L251.92 181.364H253.936V182.156H251.848L251.74 184.244C251.716 184.604 251.704 184.832 251.704 184.928C251.704 185.648 251.788 186.14 251.956 186.404C252.124 186.644 252.388 186.764 252.748 186.764C253.012 186.764 253.264 186.716 253.504 186.62C253.72 186.524 253.972 186.368 254.26 186.152L254.548 186.908ZM269.234 176V154.76H270.314V176H269.234ZM273.554 176V154.76H274.634V176H273.554ZM275.714 176V154.76H276.794V176H275.714ZM280.034 176V154.76H281.114V176H280.034ZM284.354 176V154.76H285.434V176H284.354ZM286.514 176V154.76H289.754V176H286.514ZM290.834 176V154.76H291.914V176H290.834ZM292.994 176V154.76H294.074V176H292.994ZM297.314 176V154.76H298.394V176H297.314ZM299.474 176V154.76H302.714V176H299.474ZM286.442 181.22C287.306 181.22 287.966 181.448 288.422 181.904C288.878 182.36 289.106 183.14 289.106 184.244V187.484H288.062V186.548C287.702 187.268 287.006 187.628 285.974 187.628C285.302 187.628 284.774 187.472 284.39 187.16C284.006 186.848 283.814 186.44 283.814 185.936C283.814 185.504 283.958 185.132 284.246 184.82C284.51 184.508 284.882 184.256 285.362 184.064C285.818 183.896 286.334 183.812 286.91 183.812C287.414 183.812 287.87 183.836 288.278 183.884C288.23 183.212 288.05 182.732 287.738 182.444C287.426 182.156 286.97 182.012 286.37 182.012C286.058 182.012 285.77 182.072 285.506 182.192C285.218 182.312 284.954 182.48 284.714 182.696L284.246 182.084C284.822 181.508 285.554 181.22 286.442 181.22ZM286.082 186.908C286.754 186.908 287.282 186.704 287.666 186.296C288.05 185.912 288.254 185.36 288.278 184.64C287.87 184.568 287.438 184.532 286.982 184.532C286.31 184.532 285.77 184.652 285.362 184.892C284.978 185.108 284.786 185.444 284.786 185.9C284.786 186.572 285.218 186.908 286.082 186.908Z" fill="white"/>
<defs>
<filter id="filter0_d_15_7" x="3.90112" y="0.0855103" width="427.185" height="375.914" filterUnits="userSpaceOnUse" color-interpolation-filters="sRGB">
<feFlood flood-opacity="0" result="BackgroundImageFix"/>
<feColorMatrix in="SourceAlpha" type="matrix" values="0 0 0 0 0 0 0 0 0 0 0 0 0 0 0 0 0 0 127 0" result="hardAlpha"/>
<feOffset/>
<feGaussianBlur stdDeviation="2.5"/>
<feComposite in2="hardAlpha" operator="out"/>
<feColorMatrix type="matrix" values="0 0 0 0 0 0 0 0 0 0 0 0 0 0 0 0 0 0 0.25 0"/>
<feBlend mode="normal" in2="BackgroundImageFix" result="effect1_dropShadow_15_7"/>
<feBlend mode="normal" in="SourceGraphic" in2="effect1_dropShadow_15_7" result="shape"/>
</filter>
<filter id="filter1_d_15_7" x="41.928" y="32.6383" width="352.144" height="309.362" filterUnits="userSpaceOnUse" color-interpolation-filters="sRGB">
<feFlood flood-opacity="0" result="BackgroundImageFix"/>
<feColorMatrix in="SourceAlpha" type="matrix" values="0 0 0 0 0 0 0 0 0 0 0 0 0 0 0 0 0 0 127 0" result="hardAlpha"/>
<feOffset/>
<feGaussianBlur stdDeviation="2"/>
<feComposite in2="hardAlpha" operator="out"/>
<feColorMatrix type="matrix" values="0 0 0 0 0 0 0 0 0 0 0 0 0 0 0 0 0 0 0.25 0"/>
<feBlend mode="normal" in2="BackgroundImageFix" result="effect1_dropShadow_15_7"/>
<feBlend mode="normal" in="SourceGraphic" in2="effect1_dropShadow_15_7" result="shape"/>
</filter>
<radialGradient id="paint0_radial_15_7" cx="0" cy="0" r="1" gradientUnits="userSpaceOnUse" gradientTransform="translate(217.494 190.5) rotate(90) scale(187.5 216.506)">
<stop stop-color="#159AC4"/>
<stop offset="1" stop-color="#1391B9"/>
</radialGradient>
<radialGradient id="paint1_radial_15_7" cx="0" cy="0" r="1" gradientUnits="userSpaceOnUse" gradientTransform="translate(218 189.785) rotate(90) scale(230.215 265.829)">
<stop stop-color="#22B264" stop-opacity="0.7"/>
<stop offset="1" stop-color="#329FC1"/>
</radialGradient>
</defs>
</svg>
